<mxfile host="app.diagrams.net" modified="2024-06-22T22:26:16.263Z" agent="Mozilla/5.0 (Windows NT 10.0; Win64; x64) AppleWebKit/537.36 (KHTML, like Gecko) Chrome/126.0.0.0 Safari/537.36" etag="yQgH7qbzq95uwi1ZSTc2" version="24.5.5" type="google">
  <diagram name="Page-1" id="n1rNiQ9thlRifEmH6ZNO">
    <mxGraphModel grid="1" page="1" gridSize="10" guides="1" tooltips="1" connect="1" arrows="1" fold="1" pageScale="1" pageWidth="850" pageHeight="1100" math="0" shadow="0">
      <root>
        <mxCell id="0" />
        <mxCell id="1" parent="0" />
        <mxCell id="yyonHUn1wAPgQbhQMGTY-1" value="Program" style="swimlane;fontStyle=1;align=center;verticalAlign=top;childLayout=stackLayout;horizontal=1;startSize=26;horizontalStack=0;resizeParent=1;resizeParentMax=0;resizeLast=0;collapsible=1;marginBottom=0;whiteSpace=wrap;html=1;" vertex="1" parent="1">
          <mxGeometry x="115" y="34" width="190" height="86" as="geometry" />
        </mxCell>
        <mxCell id="yyonHUn1wAPgQbhQMGTY-2" value="- points: int" style="text;strokeColor=none;fillColor=none;align=left;verticalAlign=top;spacingLeft=4;spacingRight=4;overflow=hidden;rotatable=0;points=[[0,0.5],[1,0.5]];portConstraint=eastwest;whiteSpace=wrap;html=1;" vertex="1" parent="yyonHUn1wAPgQbhQMGTY-1">
          <mxGeometry y="26" width="190" height="26" as="geometry" />
        </mxCell>
        <mxCell id="yyonHUn1wAPgQbhQMGTY-3" value="" style="line;strokeWidth=1;fillColor=none;align=left;verticalAlign=middle;spacingTop=-1;spacingLeft=3;spacingRight=3;rotatable=0;labelPosition=right;points=[];portConstraint=eastwest;strokeColor=inherit;" vertex="1" parent="yyonHUn1wAPgQbhQMGTY-1">
          <mxGeometry y="52" width="190" height="8" as="geometry" />
        </mxCell>
        <mxCell id="yyonHUn1wAPgQbhQMGTY-4" value="+ static main(string[] args): void" style="text;strokeColor=none;fillColor=none;align=left;verticalAlign=top;spacingLeft=4;spacingRight=4;overflow=hidden;rotatable=0;points=[[0,0.5],[1,0.5]];portConstraint=eastwest;whiteSpace=wrap;html=1;" vertex="1" parent="yyonHUn1wAPgQbhQMGTY-1">
          <mxGeometry y="60" width="190" height="26" as="geometry" />
        </mxCell>
        <mxCell id="yyonHUn1wAPgQbhQMGTY-5" value="Goal" style="swimlane;fontStyle=1;align=center;verticalAlign=top;childLayout=stackLayout;horizontal=1;startSize=26;horizontalStack=0;resizeParent=1;resizeParentMax=0;resizeLast=0;collapsible=1;marginBottom=0;whiteSpace=wrap;html=1;" vertex="1" parent="1">
          <mxGeometry x="75" y="340" width="270" height="160" as="geometry" />
        </mxCell>
        <mxCell id="yyonHUn1wAPgQbhQMGTY-6" value="- points: int&lt;div&gt;- isComplete: bool&lt;/div&gt;&lt;div&gt;- name: string&lt;/div&gt;&lt;div&gt;&lt;br&gt;&lt;/div&gt;" style="text;strokeColor=none;fillColor=none;align=left;verticalAlign=top;spacingLeft=4;spacingRight=4;overflow=hidden;rotatable=0;points=[[0,0.5],[1,0.5]];portConstraint=eastwest;whiteSpace=wrap;html=1;" vertex="1" parent="yyonHUn1wAPgQbhQMGTY-5">
          <mxGeometry y="26" width="270" height="54" as="geometry" />
        </mxCell>
        <mxCell id="yyonHUn1wAPgQbhQMGTY-7" value="" style="line;strokeWidth=1;fillColor=none;align=left;verticalAlign=middle;spacingTop=-1;spacingLeft=3;spacingRight=3;rotatable=0;labelPosition=right;points=[];portConstraint=eastwest;strokeColor=inherit;" vertex="1" parent="yyonHUn1wAPgQbhQMGTY-5">
          <mxGeometry y="80" width="270" height="8" as="geometry" />
        </mxCell>
        <mxCell id="yyonHUn1wAPgQbhQMGTY-8" value="&lt;div&gt;&lt;span style=&quot;background-color: initial;&quot;&gt;&amp;nbsp;&amp;lt;&amp;lt;create&amp;gt;&amp;gt; Goal(points: int, name: string)&lt;/span&gt;&lt;/div&gt;&lt;div&gt;&lt;span style=&quot;background-color: initial;&quot;&gt;+ GetPoints(): int&lt;/span&gt;&lt;/div&gt;&lt;div&gt;&lt;span style=&quot;background-color: initial;&quot;&gt;+ GetIsComplete(): bool&lt;/span&gt;&lt;/div&gt;&lt;div&gt;&lt;span style=&quot;background-color: initial;&quot;&gt;+ GetName(): string&lt;/span&gt;&lt;/div&gt;" style="text;strokeColor=none;fillColor=none;align=left;verticalAlign=top;spacingLeft=4;spacingRight=4;overflow=hidden;rotatable=0;points=[[0,0.5],[1,0.5]];portConstraint=eastwest;whiteSpace=wrap;html=1;" vertex="1" parent="yyonHUn1wAPgQbhQMGTY-5">
          <mxGeometry y="88" width="270" height="72" as="geometry" />
        </mxCell>
        <mxCell id="yyonHUn1wAPgQbhQMGTY-9" value="SimpleGoal" style="swimlane;fontStyle=1;align=center;verticalAlign=top;childLayout=stackLayout;horizontal=1;startSize=26;horizontalStack=0;resizeParent=1;resizeParentMax=0;resizeLast=0;collapsible=1;marginBottom=0;whiteSpace=wrap;html=1;" vertex="1" parent="1">
          <mxGeometry x="460" y="236" width="280" height="60" as="geometry" />
        </mxCell>
        <mxCell id="yyonHUn1wAPgQbhQMGTY-11" value="" style="line;strokeWidth=1;fillColor=none;align=left;verticalAlign=middle;spacingTop=-1;spacingLeft=3;spacingRight=3;rotatable=0;labelPosition=right;points=[];portConstraint=eastwest;strokeColor=inherit;" vertex="1" parent="yyonHUn1wAPgQbhQMGTY-9">
          <mxGeometry y="26" width="280" height="8" as="geometry" />
        </mxCell>
        <mxCell id="yyonHUn1wAPgQbhQMGTY-12" value="&amp;lt;&amp;lt;create&amp;gt;&amp;gt; SimpleGoal(points: int, name: string&lt;span style=&quot;background-color: initial;&quot;&gt;)&lt;/span&gt;" style="text;strokeColor=none;fillColor=none;align=left;verticalAlign=top;spacingLeft=4;spacingRight=4;overflow=hidden;rotatable=0;points=[[0,0.5],[1,0.5]];portConstraint=eastwest;whiteSpace=wrap;html=1;" vertex="1" parent="yyonHUn1wAPgQbhQMGTY-9">
          <mxGeometry y="34" width="280" height="26" as="geometry" />
        </mxCell>
        <mxCell id="yyonHUn1wAPgQbhQMGTY-13" value="EternalGoal" style="swimlane;fontStyle=1;align=center;verticalAlign=top;childLayout=stackLayout;horizontal=1;startSize=26;horizontalStack=0;resizeParent=1;resizeParentMax=0;resizeLast=0;collapsible=1;marginBottom=0;whiteSpace=wrap;html=1;" vertex="1" parent="1">
          <mxGeometry x="460" y="340" width="280" height="60" as="geometry" />
        </mxCell>
        <mxCell id="yyonHUn1wAPgQbhQMGTY-15" value="" style="line;strokeWidth=1;fillColor=none;align=left;verticalAlign=middle;spacingTop=-1;spacingLeft=3;spacingRight=3;rotatable=0;labelPosition=right;points=[];portConstraint=eastwest;strokeColor=inherit;" vertex="1" parent="yyonHUn1wAPgQbhQMGTY-13">
          <mxGeometry y="26" width="280" height="8" as="geometry" />
        </mxCell>
        <mxCell id="yyonHUn1wAPgQbhQMGTY-16" value="&amp;lt;&amp;lt;create&amp;gt;&amp;gt; EternalGoal(points: int, name: string)" style="text;strokeColor=none;fillColor=none;align=left;verticalAlign=top;spacingLeft=4;spacingRight=4;overflow=hidden;rotatable=0;points=[[0,0.5],[1,0.5]];portConstraint=eastwest;whiteSpace=wrap;html=1;" vertex="1" parent="yyonHUn1wAPgQbhQMGTY-13">
          <mxGeometry y="34" width="280" height="26" as="geometry" />
        </mxCell>
        <mxCell id="yyonHUn1wAPgQbhQMGTY-17" value="ChecklistGoal" style="swimlane;fontStyle=1;align=center;verticalAlign=top;childLayout=stackLayout;horizontal=1;startSize=26;horizontalStack=0;resizeParent=1;resizeParentMax=0;resizeLast=0;collapsible=1;marginBottom=0;whiteSpace=wrap;html=1;" vertex="1" parent="1">
          <mxGeometry x="460" y="444" width="280" height="120" as="geometry" />
        </mxCell>
        <mxCell id="yyonHUn1wAPgQbhQMGTY-18" value="- timesCompleted: int&lt;div&gt;- progressPoints: int&lt;/div&gt;" style="text;strokeColor=none;fillColor=none;align=left;verticalAlign=top;spacingLeft=4;spacingRight=4;overflow=hidden;rotatable=0;points=[[0,0.5],[1,0.5]];portConstraint=eastwest;whiteSpace=wrap;html=1;" vertex="1" parent="yyonHUn1wAPgQbhQMGTY-17">
          <mxGeometry y="26" width="280" height="34" as="geometry" />
        </mxCell>
        <mxCell id="yyonHUn1wAPgQbhQMGTY-19" value="" style="line;strokeWidth=1;fillColor=none;align=left;verticalAlign=middle;spacingTop=-1;spacingLeft=3;spacingRight=3;rotatable=0;labelPosition=right;points=[];portConstraint=eastwest;strokeColor=inherit;" vertex="1" parent="yyonHUn1wAPgQbhQMGTY-17">
          <mxGeometry y="60" width="280" height="8" as="geometry" />
        </mxCell>
        <mxCell id="yyonHUn1wAPgQbhQMGTY-20" value="&amp;lt;&amp;lt;create&amp;gt;&amp;gt; ChecklistGoal(ProgressPoints: int, points: int, name: int)&lt;div&gt;+^ GetPoints(): int&lt;/div&gt;" style="text;strokeColor=none;fillColor=none;align=left;verticalAlign=top;spacingLeft=4;spacingRight=4;overflow=hidden;rotatable=0;points=[[0,0.5],[1,0.5]];portConstraint=eastwest;whiteSpace=wrap;html=1;" vertex="1" parent="yyonHUn1wAPgQbhQMGTY-17">
          <mxGeometry y="68" width="280" height="52" as="geometry" />
        </mxCell>
        <mxCell id="p7oR9TdBbZVvDcDXICpe-5" value="" style="shape=flexArrow;endArrow=classic;html=1;rounded=0;" edge="1" parent="1" source="yyonHUn1wAPgQbhQMGTY-9" target="yyonHUn1wAPgQbhQMGTY-5">
          <mxGeometry width="50" height="50" relative="1" as="geometry">
            <mxPoint x="410" y="250" as="sourcePoint" />
            <mxPoint x="300" y="274" as="targetPoint" />
          </mxGeometry>
        </mxCell>
        <mxCell id="p7oR9TdBbZVvDcDXICpe-6" value="" style="shape=flexArrow;endArrow=classic;html=1;rounded=0;" edge="1" parent="1" source="yyonHUn1wAPgQbhQMGTY-13" target="yyonHUn1wAPgQbhQMGTY-5">
          <mxGeometry width="50" height="50" relative="1" as="geometry">
            <mxPoint x="330" y="476" as="sourcePoint" />
            <mxPoint x="380" y="426" as="targetPoint" />
          </mxGeometry>
        </mxCell>
        <mxCell id="p7oR9TdBbZVvDcDXICpe-7" value="" style="shape=flexArrow;endArrow=classic;html=1;rounded=0;" edge="1" parent="1" source="yyonHUn1wAPgQbhQMGTY-17" target="yyonHUn1wAPgQbhQMGTY-5">
          <mxGeometry width="50" height="50" relative="1" as="geometry">
            <mxPoint x="300" y="520" as="sourcePoint" />
            <mxPoint x="350" y="470" as="targetPoint" />
          </mxGeometry>
        </mxCell>
        <mxCell id="p7oR9TdBbZVvDcDXICpe-8" value="" style="endArrow=none;html=1;rounded=0;" edge="1" parent="1" source="yyonHUn1wAPgQbhQMGTY-5" target="yyonHUn1wAPgQbhQMGTY-21">
          <mxGeometry width="50" height="50" relative="1" as="geometry">
            <mxPoint x="185" y="330" as="sourcePoint" />
            <mxPoint x="240" y="250" as="targetPoint" />
          </mxGeometry>
        </mxCell>
        <mxCell id="yyonHUn1wAPgQbhQMGTY-21" value="Quest" style="swimlane;fontStyle=1;align=center;verticalAlign=top;childLayout=stackLayout;horizontal=1;startSize=26;horizontalStack=0;resizeParent=1;resizeParentMax=0;resizeLast=0;collapsible=1;marginBottom=0;whiteSpace=wrap;html=1;" vertex="1" parent="1">
          <mxGeometry x="116" y="140" width="185" height="168" as="geometry" />
        </mxCell>
        <mxCell id="yyonHUn1wAPgQbhQMGTY-22" value="- score: int&lt;div&gt;- goals: List&amp;lt;Goal&amp;gt;&lt;/div&gt;" style="text;strokeColor=none;fillColor=none;align=left;verticalAlign=top;spacingLeft=4;spacingRight=4;overflow=hidden;rotatable=0;points=[[0,0.5],[1,0.5]];portConstraint=eastwest;whiteSpace=wrap;html=1;" vertex="1" parent="yyonHUn1wAPgQbhQMGTY-21">
          <mxGeometry y="26" width="185" height="34" as="geometry" />
        </mxCell>
        <mxCell id="yyonHUn1wAPgQbhQMGTY-23" value="" style="line;strokeWidth=1;fillColor=none;align=left;verticalAlign=middle;spacingTop=-1;spacingLeft=3;spacingRight=3;rotatable=0;labelPosition=right;points=[];portConstraint=eastwest;strokeColor=inherit;" vertex="1" parent="yyonHUn1wAPgQbhQMGTY-21">
          <mxGeometry y="60" width="185" height="8" as="geometry" />
        </mxCell>
        <mxCell id="yyonHUn1wAPgQbhQMGTY-24" value="+ DisplayGoals(): void&lt;div&gt;+ CreateNewGoals(): void&lt;/div&gt;&lt;div&gt;+ DisplayScore(): void&lt;/div&gt;&lt;div&gt;+ RecordEvent(): void&lt;/div&gt;&lt;div&gt;+ SaveGoals(): void&lt;/div&gt;&lt;div&gt;+ LoadGoals(): void&lt;/div&gt;" style="text;strokeColor=none;fillColor=none;align=left;verticalAlign=top;spacingLeft=4;spacingRight=4;overflow=hidden;rotatable=0;points=[[0,0.5],[1,0.5]];portConstraint=eastwest;whiteSpace=wrap;html=1;" vertex="1" parent="yyonHUn1wAPgQbhQMGTY-21">
          <mxGeometry y="68" width="185" height="100" as="geometry" />
        </mxCell>
        <mxCell id="yyonHUn1wAPgQbhQMGTY-25" value="" style="endArrow=none;html=1;rounded=0;" edge="1" parent="1" source="yyonHUn1wAPgQbhQMGTY-21" target="yyonHUn1wAPgQbhQMGTY-1">
          <mxGeometry width="50" height="50" relative="1" as="geometry">
            <mxPoint x="220" y="350" as="sourcePoint" />
            <mxPoint x="220" y="319" as="targetPoint" />
          </mxGeometry>
        </mxCell>
        <mxCell id="p7oR9TdBbZVvDcDXICpe-9" value="" style="endArrow=none;html=1;rounded=0;" edge="1" parent="1" source="yyonHUn1wAPgQbhQMGTY-5" target="yyonHUn1wAPgQbhQMGTY-21">
          <mxGeometry width="50" height="50" relative="1" as="geometry">
            <mxPoint x="345" y="290" as="sourcePoint" />
            <mxPoint x="395" y="240" as="targetPoint" />
          </mxGeometry>
        </mxCell>
      </root>
    </mxGraphModel>
  </diagram>
</mxfile>
